<svg width="97" height="98" viewBox="0 0 97 98" fill="none" xmlns="http://www.w3.org/2000/svg">
<rect width="97" height="98" fill="#E5E5E5"/>
<g id="Frame 1">
<rect width="2063" height="1127" transform="translate(-479 -617)" fill="#FEBB41"/>
<g id="Foo Landing Page">
<rect x="-289" y="-496" width="1511" height="886" rx="24" fill="url(#paint0_linear_0_1)"/>
<g id="Rectangle 2" filter="url(#filter0_d_0_1)">
<rect x="-196" y="-4.06158" width="188" height="70" rx="35" fill="#2F2F2F"/>
</g>
<path id="Watch Video" d="M107.8 23.8184L104.34 37.9384H100.86L98.22 27.6984L95.56 37.9384H92.1L88.64 23.8184H91.7L93.86 34.7584L96.66 23.8184H99.76L102.58 34.7584L104.74 23.8184H107.8ZM114.069 26.7184C115.003 26.7184 115.803 26.9384 116.469 27.3784C117.136 27.8184 117.609 28.4117 117.889 29.1584V26.8584H120.689V37.9384H117.889V35.6184C117.609 36.3651 117.136 36.9651 116.469 37.4184C115.803 37.8584 115.003 38.0784 114.069 38.0784C113.136 38.0784 112.296 37.8517 111.549 37.3984C110.803 36.9451 110.216 36.2917 109.789 35.4384C109.376 34.5717 109.169 33.5584 109.169 32.3984C109.169 31.2384 109.376 30.2317 109.789 29.3784C110.216 28.5117 110.803 27.8517 111.549 27.3984C112.296 26.9451 113.136 26.7184 114.069 26.7184ZM114.949 29.1784C114.069 29.1784 113.363 29.4651 112.829 30.0384C112.296 30.6117 112.029 31.3984 112.029 32.3984C112.029 33.3984 112.296 34.1851 112.829 34.7584C113.363 35.3184 114.069 35.5984 114.949 35.5984C115.803 35.5984 116.503 35.3117 117.049 34.7384C117.609 34.1517 117.889 33.3717 117.889 32.3984C117.889 31.4117 117.609 30.6317 117.049 30.0584C116.503 29.4717 115.803 29.1784 114.949 29.1784ZM129.165 35.5184V37.9384H127.685C126.445 37.9384 125.492 37.6384 124.825 37.0384C124.172 36.4384 123.845 35.4384 123.845 34.0384V29.2384H122.305V26.8584H123.845V24.1184H126.665V26.8584H129.145V29.2384H126.665V34.0784C126.665 34.6117 126.772 34.9851 126.985 35.1984C127.198 35.4117 127.558 35.5184 128.065 35.5184H129.165ZM136.174 26.7184C137.601 26.7184 138.787 27.1051 139.734 27.8784C140.694 28.6517 141.294 29.7051 141.534 31.0384H138.554C138.434 30.4517 138.161 29.9917 137.734 29.6584C137.307 29.3117 136.767 29.1384 136.114 29.1384C135.367 29.1384 134.741 29.4184 134.234 29.9784C133.741 30.5251 133.494 31.3317 133.494 32.3984C133.494 33.4651 133.741 34.2784 134.234 34.8384C134.741 35.3851 135.367 35.6584 136.114 35.6584C136.767 35.6584 137.307 35.4917 137.734 35.1584C138.161 34.8117 138.434 34.3451 138.554 33.7584H141.534C141.294 35.0917 140.694 36.1451 139.734 36.9184C138.787 37.6917 137.601 38.0784 136.174 38.0784C135.094 38.0784 134.134 37.8517 133.294 37.3984C132.454 36.9317 131.801 36.2717 131.334 35.4184C130.867 34.5651 130.634 33.5584 130.634 32.3984C130.634 31.2384 130.867 30.2317 131.334 29.3784C131.801 28.5117 132.454 27.8517 133.294 27.3984C134.134 26.9451 135.094 26.7184 136.174 26.7184ZM150.138 26.6984C151.418 26.6984 152.438 27.1184 153.198 27.9584C153.958 28.7984 154.338 29.9784 154.338 31.4984V37.9384H151.538V31.8184C151.538 30.9384 151.311 30.2584 150.858 29.7784C150.404 29.2851 149.784 29.0384 148.998 29.0384C148.198 29.0384 147.558 29.2984 147.078 29.8184C146.598 30.3384 146.358 31.0851 146.358 32.0584V37.9384H143.538V23.1384H146.358V29.0784C146.651 28.3317 147.131 27.7517 147.798 27.3384C148.478 26.9117 149.258 26.6984 150.138 26.6984ZM163.155 23.8184L166.935 34.9984L170.735 23.8184H173.755L168.755 37.9384H165.135L160.135 23.8184H163.155ZM174.956 23.6784C174.956 23.2251 175.116 22.8584 175.436 22.5784C175.756 22.2851 176.176 22.1384 176.696 22.1384C177.216 22.1384 177.636 22.2851 177.956 22.5784C178.276 22.8584 178.436 23.2251 178.436 23.6784C178.436 24.1184 178.276 24.4851 177.956 24.7784C177.636 25.0584 177.216 25.1984 176.696 25.1984C176.176 25.1984 175.756 25.0584 175.436 24.7784C175.116 24.4851 174.956 24.1184 174.956 23.6784ZM178.096 26.8584V37.9384H175.276V26.8584H178.096ZM184.987 26.7184C185.921 26.7184 186.714 26.9384 187.367 27.3784C188.034 27.8184 188.514 28.4117 188.807 29.1584V23.1384H191.607V37.9384H188.807V35.6184C188.514 36.3651 188.034 36.9651 187.367 37.4184C186.714 37.8584 185.921 38.0784 184.987 38.0784C184.054 38.0784 183.214 37.8517 182.467 37.3984C181.721 36.9451 181.134 36.2917 180.707 35.4384C180.294 34.5717 180.087 33.5584 180.087 32.3984C180.087 31.2384 180.294 30.2317 180.707 29.3784C181.134 28.5117 181.721 27.8517 182.467 27.3984C183.214 26.9451 184.054 26.7184 184.987 26.7184ZM185.867 29.1784C184.987 29.1784 184.281 29.4651 183.747 30.0384C183.214 30.6117 182.947 31.3984 182.947 32.3984C182.947 33.3984 183.214 34.1851 183.747 34.7584C184.281 35.3184 184.987 35.5984 185.867 35.5984C186.721 35.5984 187.421 35.3117 187.967 34.7384C188.527 34.1517 188.807 33.3717 188.807 32.3984C188.807 31.4117 188.527 30.6317 187.967 30.0584C187.421 29.4717 186.721 29.1784 185.867 29.1784ZM204.583 31.9784C204.583 32.2584 204.549 32.5784 204.483 32.9384H196.363C196.403 33.9251 196.669 34.6517 197.163 35.1184C197.656 35.5851 198.269 35.8184 199.003 35.8184C199.656 35.8184 200.196 35.6584 200.623 35.3384C201.063 35.0184 201.343 34.5851 201.463 34.0384H204.443C204.296 34.8117 203.983 35.5051 203.503 36.1184C203.023 36.7317 202.403 37.2117 201.643 37.5584C200.896 37.9051 200.063 38.0784 199.143 38.0784C198.063 38.0784 197.103 37.8517 196.263 37.3984C195.423 36.9317 194.769 36.2717 194.303 35.4184C193.836 34.5651 193.603 33.5584 193.603 32.3984C193.603 31.2384 193.836 30.2317 194.303 29.3784C194.769 28.5117 195.423 27.8517 196.263 27.3984C197.103 26.9451 198.063 26.7184 199.143 26.7184C200.236 26.7184 201.189 26.9451 202.003 27.3984C202.829 27.8517 203.463 28.4784 203.903 29.2784C204.356 30.0651 204.583 30.9651 204.583 31.9784ZM201.743 31.6984C201.783 30.7917 201.543 30.1051 201.023 29.6384C200.516 29.1717 199.889 28.9384 199.143 28.9384C198.383 28.9384 197.743 29.1717 197.223 29.6384C196.703 30.1051 196.416 30.7917 196.363 31.6984H201.743ZM211.705 26.7184C212.785 26.7184 213.751 26.9451 214.605 27.3984C215.471 27.8517 216.151 28.5117 216.645 29.3784C217.138 30.2317 217.385 31.2384 217.385 32.3984C217.385 33.5584 217.138 34.5651 216.645 35.4184C216.151 36.2717 215.471 36.9317 214.605 37.3984C213.751 37.8517 212.785 38.0784 211.705 38.0784C210.625 38.0784 209.651 37.8517 208.785 37.3984C207.931 36.9317 207.258 36.2717 206.765 35.4184C206.271 34.5651 206.025 33.5584 206.025 32.3984C206.025 31.2384 206.271 30.2317 206.765 29.3784C207.258 28.5117 207.931 27.8517 208.785 27.3984C209.651 26.9451 210.625 26.7184 211.705 26.7184ZM211.705 29.1584C210.918 29.1584 210.251 29.4384 209.705 29.9984C209.158 30.5451 208.885 31.3451 208.885 32.3984C208.885 33.4517 209.158 34.2584 209.705 34.8184C210.251 35.3651 210.918 35.6384 211.705 35.6384C212.491 35.6384 213.158 35.3651 213.705 34.8184C214.251 34.2584 214.525 33.4517 214.525 32.3984C214.525 31.3451 214.251 30.5451 213.705 29.9984C213.158 29.4384 212.491 29.1584 211.705 29.1584Z" fill="#2F2F2F"/>
<g id="Group 2">
<g id="Ellipse 1" filter="url(#filter1_d_0_1)">
<circle cx="48.5" cy="29.4384" r="28.5" fill="#FFF8F0"/>
</g>
<path id="Polygon 1" d="M59 30.4384L43.25 39.5317L43.25 21.3451L59 30.4384Z" fill="#2F2F2F"/>
</g>
</g>
</g>
<defs>
<filter id="filter0_d_0_1" x="-220" y="-8.06158" width="236" height="118" filterUnits="userSpaceOnUse" color-interpolation-filters="sRGB">
<feFlood flood-opacity="0" result="BackgroundImageFix"/>
<feColorMatrix in="SourceAlpha" type="matrix" values="0 0 0 0 0 0 0 0 0 0 0 0 0 0 0 0 0 0 127 0" result="hardAlpha"/>
<feMorphology radius="8" operator="erode" in="SourceAlpha" result="effect1_dropShadow_0_1"/>
<feOffset dy="20"/>
<feGaussianBlur stdDeviation="16"/>
<feComposite in2="hardAlpha" operator="out"/>
<feColorMatrix type="matrix" values="0 0 0 0 0 0 0 0 0 0 0 0 0 0 0 0 0 0 0.2 0"/>
<feBlend mode="normal" in2="BackgroundImageFix" result="effect1_dropShadow_0_1"/>
<feBlend mode="normal" in="SourceGraphic" in2="effect1_dropShadow_0_1" result="shape"/>
</filter>
<filter id="filter1_d_0_1" x="0" y="0.938416" width="97" height="97" filterUnits="userSpaceOnUse" color-interpolation-filters="sRGB">
<feFlood flood-opacity="0" result="BackgroundImageFix"/>
<feColorMatrix in="SourceAlpha" type="matrix" values="0 0 0 0 0 0 0 0 0 0 0 0 0 0 0 0 0 0 127 0" result="hardAlpha"/>
<feMorphology radius="16" operator="erode" in="SourceAlpha" result="effect1_dropShadow_0_1"/>
<feOffset dy="20"/>
<feGaussianBlur stdDeviation="18"/>
<feComposite in2="hardAlpha" operator="out"/>
<feColorMatrix type="matrix" values="0 0 0 0 0 0 0 0 0 0 0 0 0 0 0 0 0 0 0.1 0"/>
<feBlend mode="normal" in2="BackgroundImageFix" result="effect1_dropShadow_0_1"/>
<feBlend mode="normal" in="SourceGraphic" in2="effect1_dropShadow_0_1" result="shape"/>
</filter>
<linearGradient id="paint0_linear_0_1" x1="264.634" y1="-35.4063" x2="-682.836" y2="-1149.07" gradientUnits="userSpaceOnUse">
<stop stop-color="#F4ECE1"/>
<stop offset="1" stop-color="#FCFBF7"/>
</linearGradient>
</defs>
</svg>
